<svg xmlns="http://www.w3.org/2000/svg" xml:space="preserve" viewBox="0 0 2731.191 957.455"><path fill="none" stroke="#222222" stroke-width="10" d="M2275.768 66.142c54.616 17.052 99.392 59.3 124.812 109.945 19.207 38.806 20.206 83.02 19.276 125.369 81.306-22.527 175.016 22.391 210.188 98.79 9.278 20.153 8.364 20.243 11.85 40.368 4.837 27.934 4.208 37.05 2.203 55.97-1.435 22.281-7.302 38.51-7.302 38.51-18.95 58.527-69.723 105.993-129.752 120.004-29.416 7.227-60.193 5.48-89.841.49 10.01 49.067-.651 101.566-26.994 143.948-40.095 69.832-124.29 109.483-203.716 100.376-59.57-5.017-114.432-39.268-148.431-88.02-43.865-59.98-49.311-143.452-19.538-210.718 9.831-22.994 26.117-42.254 42.43-60.862-28.096 8.475-51.756 26.86-78.832 37.787-15.013-12.993-31.122-24.764-45.5-38.58-3.727 8.945-3.848 18.971-7.89 27.75-10.086 16.803-29.251 29.22-49.35 27.063-30.211-.553-57.328-29.442-52.522-60.078-53.222 2.826-106.559 1.6-159.839 2.148-369.257 1.49-738.547 2.401-1107.818 3.565-1.251 14.857-2.151 29.846.686 44.554 50.411-.819 100.839-.843 151.232-.364.532 25.52 1.423 51.066-.423 76.53-12.726 5.466-26.008 9.594-39.308 13.468-2.902 10.05-2.378 20.662-.74 30.811 13.648 3.586 26.553 9.538 40.365 12.305.244 58.673 3.405 117.441.873 176.065-44.568.36-89.212-1.812-133.768.968-2.36-41.747-1.395-83.587-.686-125.373-20.026-2.695-40.275.406-60.42-1.61-2.198 41.392.781 83.074.672 124.54-35.974 2.91-72.085 2.09-108.161.767-2.428-41.318 1.11-82.763-2.11-124.1-18.692-.617-37.447.206-56.212-.38-6.524 41.31.723 83.397-3.111 124.965-44.232 1.755-88.539-.068-132.815 1.287-3.045-58.363-1.282-116.824-1.325-175.267 13.528-4.038 26.495-9.849 40.328-12.567 2.46-10.44 1.19-21.214-.497-31.727-13.169-3.191-25.859-8.082-38.81-12.341-3.79-9.83-.42-20.387-1.04-30.646 1.098-15.77-.115-31.52-1.548-47.213 6.05-.842 12.236-1.024 18.211-.789 45.033 1.766 90.116-.29 135.164 1.26 1.335-13.985.333-28.096.88-42.172-48.963-3.375-98.097-.156-147.115-.684.12-7.427.638-14.863.333-22.392-2.857-5.108-8.577-1.753-11.681 1.352-9.537 9.948-19.144 20.901-32.735 25.333-31.615 11.838-69.236-5.654-83.732-35.397-14.884-30.383-1.477-71.031 28.159-87.087 20.887-9.156 46.517-11.775 66.747.428 12.723 6.48 17.402 25.324 33.69 24.69.308-8.57-2.56-17.143-.804-25.756 535.365-2.948 1070.71 3.198 1606.045-.365-4.99-41.317 45.755-72.326 81.29-53.39 17.452 9.59 25.137 29.328 29.748 47.59a746.485 746.485 0 0 0 45.677-38.04c26.217 12.8 50.687 29.412 78.534 38.5-13.245-15.578-27.082-30.945-36.637-49.225-30.268-52.571-31.27-117.975-12.88-174.7 13.906-42.094 43.696-77.991 80.674-102.054 53.237-35.671 122.861-44.934 183.816-25.599zm-134.963 86.503c-35.857 21.975-61.748 60.96-64.8 103.231-4.817 47.889 19.716 97.281 60.306 122.922 14.949 9.777 31.987 15.981 49.397 19.432 3.92 1.248 10.695.89 10.318 6.82.726 9.795-2.246 19.804 1.209 29.285 10.67.202 15.435-10.692 22.056-17.125 12.06-14.573 34.206-16.387 50.385-8.22 21.098 9.59 32.5 32.44 35.628 54.388 4.382 27.774-2.184 59.839-24.736 78.373-17.17 14.867-45.914 15.03-61.94-1.572-5.863-6.509-10.344-17.83-20.79-17.114-4.513 10.911-.848 22.537-.8 33.766-28.39 4.953-57.049 14.76-77.783 35.694-48.924 42.687-57.342 123.1-17.765 174.695 22.925 31.015 58.778 53.15 97.602 55.963 33.112 3.462 66.901-7.468 93.037-27.701 35.673-28.124 56.295-74.912 51.01-120.292-3.053-31.833-20.527-60.266-42.033-83.17 23.985-20.96 47.704-42.265 71.654-63.265 19.68 24.256 45.584 46.708 77.829 50.182 55.591 5.641 111.099-41.387 113.423-97.535 1.84-38.856-22.083-76.8-57.105-93.244-29.224-14.706-66.011-14.634-94.302 2.345-15.801 8.681-28.017 22.377-38.31 36.965-26.012-18.85-48.43-42.141-73.685-61.985 22.015-24.312 38.459-54.641 42.016-87.566 8.138-65.525-43.35-130.078-107.24-141.965-32.1-6.604-66.641-.42-94.58 16.693z"/></svg>